# 3ds Max Wavefront OBJ Exporter v0.97b - (c)2007 guruware
# File Created: 22.11.2017 19:55:53

mtllib gambe_1.mtl

#
# object Box002
#

v  9.5423 0.0000 -73.4714
v  9.5423 0.0000 -72.2351
v  8.3612 0.0000 -72.2351
v  8.3612 0.0000 -73.4714
v  7.6706 0.0000 -72.2351
v  7.6706 0.0000 -73.4714
v  10.5266 22.4409 -73.4714
v  9.5423 22.4409 -73.4714
v  9.5423 22.4409 -72.2351
v  10.5266 22.4409 -72.2351
v  8.3612 22.4409 -73.4714
v  8.3612 22.4409 -72.2351
v  7.6706 22.4409 -73.4714
v  7.6706 22.4409 -72.2351
v  9.5423 4.4882 -73.4714
v  9.7392 4.4882 -73.4714
v  8.3612 3.9370 -73.4714
v  7.6706 3.3884 -73.4714
v  9.5423 8.9764 -73.4714
v  9.9360 8.9764 -73.4714
v  8.3612 8.9764 -73.4714
v  7.6706 8.9764 -73.4714
v  9.5423 13.4646 -73.4714
v  10.1329 13.4646 -73.4714
v  8.3612 13.4646 -73.4714
v  7.6706 13.4646 -73.4714
v  9.5423 17.9528 -73.4714
v  10.3297 17.9528 -73.4714
v  8.3612 17.9528 -73.4714
v  7.6706 17.9528 -73.4714
v  7.6706 17.9528 -72.2351
v  8.3612 3.9370 -72.2351
v  7.6706 3.3884 -72.2351
v  9.5423 4.4882 -72.2351
v  9.7392 4.4882 -72.2351
v  8.3612 8.9764 -72.2351
v  7.6706 8.9764 -72.2351
v  9.5423 8.9764 -72.2351
v  9.9360 8.9764 -72.2351
v  8.3612 13.4646 -72.2351
v  7.6706 13.4646 -72.2351
v  9.5423 13.4646 -72.2351
v  10.1329 13.4646 -72.2351
v  8.3612 17.9528 -72.2351
v  9.5423 17.9528 -72.2351
v  10.3297 17.9528 -72.2351
v  0.0000 0.0000 -73.4714
v  0.0000 0.0000 -72.2351
v  0.0000 1.7717 -72.2351
v  0.0000 1.7717 -73.4714
v  0.6793 3.3884 -72.2351
v  0.6793 1.7717 -72.2351
v  0.6793 3.3884 -73.4714
v  0.6793 1.7717 -73.4714
v  -9.5423 0.0000 -72.2351
v  -9.5423 0.0000 -73.4714
v  -8.3612 0.0000 -73.4714
v  -8.3612 0.0000 -72.2351
v  -7.6706 0.0000 -73.4714
v  -7.6706 0.0000 -72.2351
v  -10.5266 22.4409 -72.2351
v  -9.5423 22.4409 -72.2351
v  -9.5423 22.4409 -73.4714
v  -10.5266 22.4409 -73.4714
v  -8.3612 22.4409 -72.2351
v  -8.3612 22.4409 -73.4714
v  -7.6706 22.4409 -72.2351
v  -7.6706 22.4409 -73.4714
v  -9.5423 4.4882 -72.2351
v  -9.7392 4.4882 -72.2351
v  -8.3612 3.9370 -72.2351
v  -7.6706 3.3884 -72.2351
v  -9.5423 8.9764 -72.2351
v  -9.9360 8.9764 -72.2351
v  -8.3612 8.9764 -72.2351
v  -7.6706 8.9764 -72.2351
v  -9.5423 13.4646 -72.2351
v  -10.1329 13.4646 -72.2351
v  -8.3612 13.4646 -72.2351
v  -7.6706 13.4646 -72.2351
v  -9.5423 17.9528 -72.2351
v  -10.3297 17.9528 -72.2351
v  -8.3612 17.9528 -72.2351
v  -7.6706 17.9528 -72.2351
v  -7.6706 17.9528 -73.4714
v  -8.3612 3.9370 -73.4714
v  -7.6706 3.3884 -73.4714
v  -9.5423 4.4882 -73.4714
v  -9.7392 4.4882 -73.4714
v  -8.3612 8.9764 -73.4714
v  -7.6706 8.9764 -73.4714
v  -9.5423 8.9764 -73.4714
v  -9.9360 8.9764 -73.4714
v  -8.3612 13.4646 -73.4714
v  -7.6706 13.4646 -73.4714
v  -9.5423 13.4646 -73.4714
v  -10.1329 13.4646 -73.4714
v  -8.3612 17.9528 -73.4714
v  -9.5423 17.9528 -73.4714
v  -10.3297 17.9528 -73.4714
v  -0.6793 3.3884 -73.4714
v  -0.6793 1.7717 -73.4714
v  -0.6793 3.3884 -72.2351
v  -0.6793 1.7717 -72.2351
# 104 vertices

vn 0.5909 0.5657 0.5751
vn 0.5911 0.5656 -0.5750
vn -1.0000 0.0000 0.0000
vn 0.0000 -0.7071 0.7071
vn -0.0000 -0.7071 -0.7071
vn -0.0000 0.7071 -0.7071
vn 0.0000 0.7071 0.7071
vn -0.5774 0.5774 -0.5774
vn -0.5774 0.5774 0.5774
vn -0.0000 0.0000 -1.0000
vn 0.7064 -0.0310 -0.7071
vn -0.3015 0.3015 -0.9045
vn -0.7071 -0.0000 -0.7071
vn -0.7071 0.0000 -0.7071
vn -0.7071 0.0000 0.7071
vn 0.0000 0.0000 1.0000
vn -0.3015 0.3015 0.9045
vn 0.7064 -0.0310 0.7071
vn -0.5774 -0.5774 -0.5774
vn -0.5774 -0.5774 0.5774
vn -0.5909 0.5657 -0.5751
vn -0.5909 0.5657 0.5751
vn 0.5774 0.5774 0.5774
vn 0.5774 0.5774 -0.5774
vn -0.7063 -0.0310 0.7072
vn 0.3015 0.3015 0.9045
vn -0.7064 -0.0310 0.7071
vn 0.7071 -0.0000 0.7071
vn 0.7071 0.0000 0.7071
vn 0.7071 0.0000 -0.7071
vn 0.3015 0.3015 -0.9045
vn -0.7064 -0.0310 -0.7072
vn -0.7064 -0.0310 -0.7071
vn 0.5774 -0.5774 0.5774
vn 0.5774 -0.5774 -0.5774
# 35 vertex normals

vt 1.0000 0.0000 0.0000
vt 1.0000 1.0000 0.0000
vt 0.7500 1.0000 0.0000
vt 0.7500 0.0000 0.0000
vt 0.5000 1.0000 0.0000
vt 0.5000 0.0000 0.0000
vt 0.2500 1.0000 0.0000
vt 0.2500 0.0000 0.0000
vt 0.0000 0.0000 0.0000
vt 0.0000 1.0000 0.0000
vt 0.2500 0.2000 0.0000
vt 0.0000 0.2000 0.0000
vt 0.5000 0.2000 0.0000
vt 0.7500 0.2000 0.0000
vt 0.2500 0.4000 0.0000
vt 0.0000 0.4000 0.0000
vt 0.5000 0.4000 0.0000
vt 0.7500 0.4000 0.0000
vt 0.2500 0.6000 0.0000
vt 0.0000 0.6000 0.0000
vt 0.5000 0.6000 0.0000
vt 0.7500 0.6000 0.0000
vt 0.2500 0.8000 0.0000
vt 0.0000 0.8000 0.0000
vt 0.5000 0.8000 0.0000
vt 0.7500 0.8000 0.0000
vt 1.0000 0.2000 0.0000
vt 1.0000 0.4000 0.0000
vt 1.0000 0.6000 0.0000
vt 1.0000 0.8000 0.0000
vt 0.2500 0.1200 0.0000
vt 0.5500 0.1200 0.0000
# 32 texture coords

o Box002
g Box002
usemtl 01___Default
s 1
f 1/1/1 2/2/2 2/3/3 1/4/3 
s 2
f 1/4/3 2/3/3 3/5/4 4/6/5 
f 4/6/5 3/5/4 5/7/4 6/8/5 
s 1
f 7/9/2 8/8/6 9/7/7 10/10/1 
f 8/8/6 11/6/6 12/5/7 9/7/7 
f 11/6/6 13/4/8 14/3/9 12/5/7 
s 4
f 1/9/1 1/8/3 15/11/10 16/12/11 
f 1/8/3 4/6/5 17/13/10 15/11/10 
f 4/6/5 6/4/5 18/14/12 17/13/10 
f 16/12/11 15/11/10 19/15/10 20/16/11 
f 15/11/10 17/13/10 21/17/10 19/15/10 
f 17/13/10 18/14/12 22/18/13 21/17/10 
f 20/16/11 19/15/10 23/19/10 24/20/11 
f 19/15/10 21/17/10 25/21/10 23/19/10 
f 21/17/10 22/18/13 26/22/14 25/21/10 
f 24/20/11 23/19/10 27/23/10 28/24/11 
f 23/19/10 25/21/10 29/25/10 27/23/10 
f 25/21/10 26/22/14 30/26/14 29/25/10 
f 28/24/11 27/23/10 8/7/6 7/10/2 
f 27/23/10 29/25/10 11/5/6 8/7/6 
f 29/25/10 30/26/14 13/3/8 11/5/6 
s 2
f 13/3/8 30/26/14 31/23/15 14/3/9 
s 4
f 5/8/4 3/6/4 32/13/16 33/11/17 
f 3/6/4 2/4/3 34/14/16 32/13/16 
f 2/4/3 2/1/2 35/27/18 34/14/16 
f 33/11/17 32/13/16 36/17/16 37/15/15 
f 32/13/16 34/14/16 38/18/16 36/17/16 
f 34/14/16 35/27/18 39/28/18 38/18/16 
f 37/15/15 36/17/16 40/21/16 41/19/15 
f 36/17/16 38/18/16 42/22/16 40/21/16 
f 38/18/16 39/28/18 43/29/18 42/22/16 
f 41/19/15 40/21/16 44/25/16 31/23/15 
f 40/21/16 42/22/16 45/26/16 44/25/16 
f 42/22/16 43/29/18 46/30/18 45/26/16 
f 31/23/15 44/25/16 12/5/7 14/7/9 
f 44/25/16 45/26/16 9/3/7 12/5/7 
f 45/26/16 46/30/18 10/2/1 9/3/7 
s 2
f 2/9/2 1/1/1 16/27/11 35/12/18 
f 35/12/18 16/27/11 20/28/11 39/16/18 
f 39/16/18 20/28/11 24/29/11 43/20/18 
f 43/20/18 24/29/11 28/30/11 46/24/18 
f 46/24/18 28/30/11 7/2/2 10/10/1 
s 1
f 47/8/19 48/8/20 49/31/9 50/32/8 
s 2
f 18/14/12 33/11/17 37/15/15 22/18/13 
f 22/18/13 37/15/15 41/19/15 26/22/14 
f 26/22/14 41/19/15 31/23/15 30/26/14 
f 6/8/5 5/8/4 48/8/20 47/8/19 
s 4
f 5/8/4 33/11/17 51/11/9 52/11/8 49/31/9 48/8/20 
s 1
f 18/14/12 53/14/8 51/11/9 33/11/17 
s 4
f 47/8/19 50/32/8 54/14/9 53/14/8 18/14/12 6/8/5 
s 2
f 50/32/8 49/31/9 52/11/8 54/14/9 
f 51/11/9 53/14/8 54/14/9 52/11/8 
s 1
f 55/1/21 56/2/22 56/3/5 55/4/4 
s 2
f 55/4/4 56/3/5 57/5/5 58/6/4 
f 58/6/4 57/5/5 59/7/5 60/8/4 
s 1
f 61/9/22 62/8/7 63/7/6 64/10/21 
f 62/8/7 65/6/7 66/5/6 63/7/6 
f 65/6/7 67/4/23 68/3/24 66/5/6 
s 4
f 55/9/21 55/8/4 69/11/16 70/12/25 
f 55/8/4 58/6/4 71/13/16 69/11/16 
f 58/6/4 60/4/4 72/14/26 71/13/16 
f 70/12/25 69/11/16 73/15/16 74/16/27 
f 69/11/16 71/13/16 75/17/16 73/15/16 
f 71/13/16 72/14/26 76/18/28 75/17/16 
f 74/16/27 73/15/16 77/19/16 78/20/25 
f 73/15/16 75/17/16 79/21/16 77/19/16 
f 75/17/16 76/18/28 80/22/29 79/21/16 
f 78/20/25 77/19/16 81/23/16 82/24/25 
f 77/19/16 79/21/16 83/25/16 81/23/16 
f 79/21/16 80/22/29 84/26/29 83/25/16 
f 82/24/25 81/23/16 62/7/7 61/10/22 
f 81/23/16 83/25/16 65/5/7 62/7/7 
f 83/25/16 84/26/29 67/3/23 65/5/7 
s 2
f 67/3/23 84/26/29 85/23/30 68/3/24 
s 4
f 59/8/5 57/6/5 86/13/10 87/11/31 
f 57/6/5 56/4/5 88/14/10 86/13/10 
f 56/4/5 56/1/22 89/27/32 88/14/10 
f 87/11/31 86/13/10 90/17/10 91/15/30 
f 86/13/10 88/14/10 92/18/10 90/17/10 
f 88/14/10 89/27/32 93/28/33 92/18/10 
f 91/15/30 90/17/10 94/21/10 95/19/30 
f 90/17/10 92/18/10 96/22/10 94/21/10 
f 92/18/10 93/28/33 97/29/32 96/22/10 
f 95/19/30 94/21/10 98/25/10 85/23/30 
f 94/21/10 96/22/10 99/26/10 98/25/10 
f 96/22/10 97/29/32 100/30/32 99/26/10 
f 85/23/30 98/25/10 66/5/6 68/7/24 
f 98/25/10 99/26/10 63/3/6 66/5/6 
f 99/26/10 100/30/32 64/2/21 63/3/6 
s 2
f 56/9/22 55/1/21 70/27/25 89/12/32 
f 89/12/32 70/27/25 74/28/27 93/16/33 
f 93/16/33 74/28/27 78/29/25 97/20/32 
f 97/20/32 78/29/25 82/30/25 100/24/32 
f 100/24/32 82/30/25 61/2/22 64/10/21 
s 1
f 48/8/34 47/8/35 50/31/24 49/32/23 
s 2
f 72/14/26 87/11/31 91/15/30 76/18/28 
f 76/18/28 91/15/30 95/19/30 80/22/29 
f 80/22/29 95/19/30 85/23/30 84/26/29 
f 60/8/4 59/8/5 47/8/35 48/8/34 
s 4
f 59/8/5 87/11/31 101/11/24 102/11/23 50/31/24 47/8/35 
s 1
f 72/14/26 103/14/23 101/11/24 87/11/31 
s 4
f 48/8/34 49/32/23 104/14/24 103/14/23 72/14/26 60/8/4 
s 2
f 49/32/23 50/31/24 102/11/23 104/14/24 
f 101/11/24 103/14/23 104/14/24 102/11/23 
# 104 polygons

